<svg id="레이어_1" data-name="레이어 1" xmlns="http://www.w3.org/2000/svg" viewBox="0 0 4000 4000"><defs><style>.cls-1,.cls-2{fill:none;stroke:#000;stroke-linecap:round;stroke-linejoin:round;}.cls-1{stroke-width:219.14px;}.cls-2{stroke-width:143.85px;}</style></defs><title>대지 24</title><path class="cls-1" d="M1331.94,3513h682V473.35c0-162.21-104.73-293.79-233.85-293.79H173.45V3513H892.83"/><path class="cls-1" d="M173.45,3020.06H1733.67s207.92,176.06,258.11,493"/><path class="cls-1" d="M3135.07,3513h719.38V179.56H2247.8c-129.12,0-233.85,131.58-233.85,293.79V3513H3135.07Z"/><path class="cls-1" d="M3854.45,3020.06H2294.23s-207.93,176.06-258.12,493"/><line class="cls-1" x1="589.2" y1="1255.56" x2="1560.83" y2="1255.56"/><line class="cls-1" x1="1070.64" y1="694.69" x2="1070.64" y2="2399.29"/><line class="cls-1" x1="2509.11" y1="860.34" x2="3434.03" y2="860.34"/><line class="cls-1" x1="2509.11" y1="1447.22" x2="3434.03" y2="1447.22"/><line class="cls-1" x1="2509.11" y1="2034.1" x2="3434.03" y2="2034.1"/><polygon class="cls-2" points="929.45 3823.16 1105.62 3663.59 1289.45 3823.16 1289.45 3037.15 929.45 3037.15 929.45 3823.16"/></svg>