<svg id="레이어_1" data-name="레이어 1" xmlns="http://www.w3.org/2000/svg" viewBox="0 0 4000 4000"><defs><style>.cls-1,.cls-2{fill:none;stroke:#000;stroke-linecap:round;stroke-linejoin:round;}.cls-1{stroke-width:73.06px;}.cls-2{stroke-width:200px;}</style></defs><title>대지 5</title><circle class="cls-1" cx="663.87" cy="1721.08" r="77.75"/><line class="cls-1" x1="733.73" y1="1687.27" x2="733.73" y2="1429.22"/><circle class="cls-1" cx="885.86" cy="1643.33" r="77.75"/><line class="cls-1" x1="955.73" y1="1609.52" x2="955.73" y2="1351.47"/><line class="cls-1" x1="733.73" y1="1522.75" x2="954.6" y2="1443.87"/><line class="cls-1" x1="734.86" y1="1429.22" x2="955.73" y2="1350.34"/><circle class="cls-1" cx="3250.18" cy="3251.71" r="77.75"/><line class="cls-1" x1="3320.04" y1="3217.91" x2="3320.04" y2="2959.86"/><circle class="cls-1" cx="3472.17" cy="3173.96" r="77.75"/><line class="cls-1" x1="3542.04" y1="3140.15" x2="3542.04" y2="2882.1"/><line class="cls-1" x1="3320.04" y1="3053.39" x2="3540.91" y2="2974.51"/><line class="cls-1" x1="3321.17" y1="2959.86" x2="3542.04" y2="2880.98"/><circle class="cls-1" cx="3015.83" cy="2181.81" r="133"/><path class="cls-1" d="M3135.34,2124V1682.57S3292.8,1864.25,3292.8,1986"/><circle class="cls-1" cx="497.43" cy="1007.08" r="133"/><path class="cls-1" d="M616.94,949.25V507.83S774.4,689.52,774.4,811.29"/><circle class="cls-1" cx="2122.82" cy="3594.39" r="133"/><line class="cls-1" x1="2242.33" y1="3536.56" x2="2242.33" y2="3095.15"/><circle class="cls-1" cx="2502.55" cy="3461.39" r="133"/><line class="cls-1" x1="2622.06" y1="3403.56" x2="2622.06" y2="2962.14"/><line class="cls-1" x1="2242.33" y1="3255.14" x2="2620.13" y2="3120.2"/><line class="cls-1" x1="2244.25" y1="3095.15" x2="2622.06" y2="2960.22"/><circle class="cls-1" cx="1481.47" cy="915.36" r="133"/><line class="cls-1" x1="1600.98" y1="857.53" x2="1600.98" y2="416.11"/><circle class="cls-1" cx="1861.2" cy="782.35" r="133"/><line class="cls-1" x1="1980.72" y1="724.53" x2="1980.72" y2="283.11"/><line class="cls-1" x1="1600.98" y1="576.1" x2="1978.79" y2="441.17"/><line class="cls-1" x1="1602.91" y1="416.11" x2="1980.72" y2="281.18"/><path class="cls-2" d="M473.63,3462.94C297.92,3308,178.24,3103.8,175,2882.15c-5.93-405.47,301.94-743.62,691.73-812.74,0,0,301.22-54.94,380.1-280.28,91.51-261.4,360.51-437.42,644.28-397.06,117.16,16.58,228.92,63.46,325.78,131.26"/><path class="cls-2" d="M2465.27,1797.63c44.15,79,74.66,165.37,87.6,255,40.8,283.68-134.77,553-396,644.94-225.18,79.31-279.56,380.58-279.56,380.58-68.42,390-406,698.39-811.49,693.23-221.71-2.81-426.12-122.1-581.35-297.61"/><path class="cls-2" d="M1782.56,2389.66a266,266,0,0,1-2.15,79c-25.55,143.27-162.41,238.71-305.69,213.16s-238.7-162.41-213.15-305.68c22.22-124.61,128.61-213,250.21-217"/><path class="cls-2" d="M1511.78,2159.08a259.58,259.58,0,0,1,55.47,3.88c116.51,20.78,201.39,115.18,215.31,226.7"/><rect class="cls-2" x="626.67" y="2946.51" width="545.51" height="129.44" rx="36.38" transform="translate(2461.14 284.05) rotate(46.43)"/><path class="cls-2" d="M1818.37,2406.38a109.13,109.13,0,0,0,33.78-22L3074.54,1214.47c2.05-2,4.11-4.06,5.9-6.18"/><path class="cls-2" d="M1573.83,2148.17a108.19,108.19,0,0,1,22.19-30.54L2794.56,964.87a104.1,104.1,0,0,1,24-17.36"/><path class="cls-2" d="M3044.33,292.67h474a95.86,95.86,0,0,1,95.86,95.86V961.66a287.57,287.57,0,0,1-287.57,287.57H3236a287.57,287.57,0,0,1-287.57-287.57V388.52A95.86,95.86,0,0,1,3044.33,292.67Z" transform="translate(1578.18 -2137.79) rotate(46.43)"/><line class="cls-2" x1="3192.52" y1="395.97" x2="3043.92" y2="228.59"/><line class="cls-2" x1="3058.94" y1="513.03" x2="2910.34" y2="345.65"/><line class="cls-2" x1="2925.36" y1="630.08" x2="2776.77" y2="462.71"/><line class="cls-2" x1="3697.95" y1="1169.36" x2="3549.35" y2="1001.99"/><line class="cls-2" x1="3826" y1="1060.28" x2="3677.4" y2="892.91"/><line class="cls-2" x1="3564.37" y1="1286.42" x2="3415.77" y2="1119.04"/></svg>