<svg id="레이어_1" data-name="레이어 1" xmlns="http://www.w3.org/2000/svg" viewBox="0 0 4000 4000"><defs><style>.cls-1,.cls-2{fill:none;stroke:#000;stroke-linecap:round;stroke-linejoin:round;}.cls-1{stroke-width:200px;}.cls-2{stroke-width:201.06px;}</style></defs><title>대지 11</title><line class="cls-1" x1="376.33" y1="457" x2="907.75" y2="806.22"/><line class="cls-1" x1="300.41" y1="1132.66" x2="748.32" y2="1178.21"/><line class="cls-1" x1="383.92" y1="1823.5" x2="869.79" y2="1633.71"/><line class="cls-1" x1="3628.57" y1="457" x2="3097.15" y2="806.22"/><line class="cls-1" x1="3704.48" y1="1132.66" x2="3256.58" y2="1178.21"/><line class="cls-1" x1="3620.98" y1="1823.5" x2="3135.11" y2="1633.71"/><path class="cls-2" d="M1116.56,2253.69c93.14-115,180-269.65,188.57-413,1.87-31.43,4-62.85,7.66-94.08L1417,618.86a850,850,0,0,1,29.39-142.49c40.08-134.61,57.26-196.8,128.37-245.71C1620.27,199.33,1673,184,1726.33,184h46c123.25,0,224,88,224,195.5V2486.43a175.5,175.5,0,0,1-3.14,30.58c4.71,45.08-16.93,91.18-61.57,119.47l-375.3,238"/><polygon class="cls-2" points="946.95 3796 144.8 2645.66 971.74 2063.61 1658.78 3043.15 946.95 3796"/><path class="cls-2" d="M2442.69,2874.52l-375.3-238c-44.64-28.29-66.28-74.39-61.57-119.47a175.5,175.5,0,0,1-3.14-30.58V379.5c0-107.51,100.78-195.5,224-195.5h46c53.31,0,106.06,15.33,151.62,46.66,71.11,48.91,88.29,111.1,128.37,245.71a850,850,0,0,1,29.39,142.49l104.16,1127.76c3.7,31.23,5.79,62.65,7.67,94.08,8.56,143.34,95.42,298,188.56,413"/><polygon class="cls-2" points="3052.1 3796 3854.25 2645.66 3027.31 2063.61 2340.27 3043.15 3052.1 3796"/></svg>