<svg id="레이어_1" data-name="레이어 1" xmlns="http://www.w3.org/2000/svg" viewBox="0 0 4000 4000"><defs><style>.cls-1,.cls-2{fill:none;stroke:#000;stroke-linecap:round;stroke-width:200px;}.cls-1{stroke-miterlimit:10;}.cls-2{stroke-linejoin:round;}</style></defs><title>대지 12</title><path class="cls-1" d="M2985.53,2445.47v1248.6H223.5V584.72c0-142.69,115.62-258.31,258.31-258.31H2730c141.13,0,255.55,114.43,255.55,255.56v826.86"/><line class="cls-2" x1="489.61" y1="138.3" x2="489.61" y2="532.87"/><line class="cls-2" x1="813.4" y1="138.3" x2="813.4" y2="532.87"/><line class="cls-2" x1="1137.19" y1="138.3" x2="1137.19" y2="532.87"/><line class="cls-2" x1="1460.98" y1="138.3" x2="1460.98" y2="532.87"/><line class="cls-2" x1="1784.76" y1="138.3" x2="1784.76" y2="532.87"/><line class="cls-2" x1="2108.55" y1="138.3" x2="2108.55" y2="532.87"/><line class="cls-2" x1="2432.34" y1="138.3" x2="2432.34" y2="532.87"/><line class="cls-2" x1="2756.13" y1="138.3" x2="2756.13" y2="532.87"/><path class="cls-2" d="M2031.56,2981.81c-25.24,7-48.73-15.68-42.52-41.14l59.58-244.56,73.43-301.43,232.14,216.21,232.13,216.22-305.57,85.21Z"/><path d="M2096,2903.47a10.29,10.29,0,0,1-12.76-12.34l17.87-73.37,22-90.43,69.64,64.87,69.65,64.86-91.68,25.56Z"/><path class="cls-1" d="M2942,843.33h221.77a240.61,240.61,0,0,1,240.61,240.61V2808.57a56.51,56.51,0,0,1-56.51,56.51h-590a56.51,56.51,0,0,1-56.51-56.51V1083.94A240.61,240.61,0,0,1,2942,843.33Z" transform="translate(2066.57 -1578.75) rotate(42.7)"/><line class="cls-1" x1="3182.82" y1="1193.56" x2="3677" y2="1646.3"/><line class="cls-1" x1="2999.3" y1="1377.08" x2="3496" y2="1830.3"/><line class="cls-1" x1="563.02" y1="1262.38" x2="2581.78" y2="1262.38"/><line class="cls-1" x1="563.02" y1="1849.66" x2="2581.78" y2="1849.66"/><line class="cls-1" x1="563.02" y1="2491.99" x2="2104.62" y2="2491.99"/><line class="cls-1" x1="563.02" y1="3134.33" x2="2581.78" y2="3134.33"/></svg>