<svg id="레이어_1" data-name="레이어 1" xmlns="http://www.w3.org/2000/svg" viewBox="0 0 4000 4000"><defs><style>.cls-1{font-size:441.03px;font-family:LucidaFax-DemiItalic, Lucida Fax;font-weight:300;font-style:italic;}.cls-2,.cls-3{fill:none;stroke:#000;stroke-linecap:round;stroke-width:200px;}.cls-2{stroke-miterlimit:10;}.cls-3{stroke-linejoin:round;}</style></defs><title>대지 14</title><text class="cls-1" transform="translate(627.15 1079.25) scale(0.95 1)">Quiet </text><text class="cls-1" transform="translate(1179.34 1736.5) scale(0.95 1)">Time</text><path class="cls-2" d="M2971.68,2455.47v1248.6h-2762V594.72C209.65,452,325.27,336.41,468,336.41H2716.13c141.13,0,255.55,114.43,255.55,255.56v826.86"/><line class="cls-3" x1="475.76" y1="148.3" x2="475.76" y2="542.87"/><line class="cls-3" x1="799.55" y1="148.3" x2="799.55" y2="542.87"/><line class="cls-3" x1="1123.34" y1="148.3" x2="1123.34" y2="542.87"/><line class="cls-3" x1="1447.13" y1="148.3" x2="1447.13" y2="542.87"/><line class="cls-3" x1="1770.91" y1="148.3" x2="1770.91" y2="542.87"/><line class="cls-3" x1="2094.7" y1="148.3" x2="2094.7" y2="542.87"/><line class="cls-3" x1="2418.49" y1="148.3" x2="2418.49" y2="542.87"/><line class="cls-3" x1="2742.28" y1="148.3" x2="2742.28" y2="542.87"/><path class="cls-3" d="M2017.71,2991.81c-25.24,7-48.73-15.68-42.52-41.14l59.58-244.56,73.43-301.43,232.14,216.21,232.13,216.22-305.57,85.21Z"/><path d="M2082.12,2913.47a10.28,10.28,0,0,1-12.76-12.34l17.87-73.37,22-90.43,69.64,64.87,69.64,64.86-91.67,25.56Z"/><path class="cls-2" d="M2928.11,853.33h221.77a240.61,240.61,0,0,1,240.61,240.61V2818.57a56.51,56.51,0,0,1-56.51,56.51H2744a56.51,56.51,0,0,1-56.51-56.51V1093.94A240.61,240.61,0,0,1,2928.11,853.33Z" transform="translate(2069.68 -1566.71) rotate(42.7)"/><line class="cls-2" x1="3168.97" y1="1203.56" x2="3663.15" y2="1655.3"/><line class="cls-2" x1="2985.45" y1="1387.08" x2="3473.15" y2="1832.3"/><line class="cls-2" x1="549.17" y1="1272.38" x2="2567.93" y2="1272.38"/><line class="cls-2" x1="549.17" y1="1859.66" x2="2567.93" y2="1859.66"/><line class="cls-2" x1="549.17" y1="2501.99" x2="2090.77" y2="2501.99"/><line class="cls-2" x1="549.17" y1="3144.33" x2="2567.93" y2="3144.33"/></svg>