<svg id="레이어_1" data-name="레이어 1" xmlns="http://www.w3.org/2000/svg" viewBox="0 0 4000 4000"><defs><style>.cls-1,.cls-2,.cls-3{fill:none;stroke:#000;stroke-width:207.73px;}.cls-1,.cls-3{stroke-linecap:round;}.cls-1{stroke-linejoin:round;}.cls-2,.cls-3{stroke-miterlimit:10;}</style></defs><title>대지 22</title><line class="cls-1" x1="1062.85" y1="1026.11" x2="790.91" y2="1026.11"/><line class="cls-2" x1="1557.96" y1="2264.08" x2="1089.62" y2="1938.53"/><line class="cls-2" x1="2611.38" y1="2996.47" x2="2143.14" y2="2670.93"/><line class="cls-2" x1="3483.69" y1="3602.96" x2="2669.85" y2="3037.12"/><polyline class="cls-2" points="2084.67 2630.28 2026.2 2589.63 1616.43 2304.73"/><polyline class="cls-2" points="1031.15 1897.88 568.61 1576.29 568.61 1511.88 568.61 1434.19 568.61 1369.7 568.61 1025.85 617.3 980.8 1350.94 300.66 1399.63 255.53 3483.69 255.53 3483.69 1369.7 3483.69 1434.19 3483.69 1511.88 3483.69 1576.29"/><path class="cls-2" d="M3632.15,3706.17a173,173,0,0,1-110.11,39H530.35a173.24,173.24,0,0,1-110.2-39c-34.36-28.24-56-69.33-56-115.08V1588.17c0-45.08,21-85.64,54.49-113.83.5-.43,1-.84,1.51-1.26l148.46,103.21,462.54,321.59,58.47,40.65L1558,2264.08l58.47,40.65,409.77,284.9"/><path class="cls-2" d="M3688.15,1588.17V3591.09c0,45.75-21.64,86.84-56,115.08L3483.69,3603l-813.84-565.84-58.47-40.65-468.24-325.54-58.47-40.65-58.47-40.65L2436,2304.73l58.47-40.65,468.24-325.55,58.47-40.65,462.54-321.59,127.95-89,18.51-12.93,2-1.32C3666.51,1501.32,3688.15,1542.41,3688.15,1588.17Z"/><path class="cls-1" d="M1350.93,300.69,617.28,980.76l-48.68,45.12h664.82c91.79,0,166.18-69,166.18-154.05V255.57Z"/><line class="cls-2" x1="579.52" y1="1357.2" x2="440.72" y2="1456.59"/><line class="cls-2" x1="3498.24" y1="1360.85" x2="3627.69" y2="1470.54"/><line class="cls-3" x1="2022.31" y1="1198.83" x2="3090.15" y2="1198.83"/><line class="cls-3" x1="2022.31" y1="846.88" x2="3090.15" y2="846.88"/><line class="cls-3" x1="2495.29" y1="2263.46" x2="1557.1" y2="2263.46"/><line class="cls-3" x1="1001.92" y1="1568.37" x2="3090.15" y2="1568.37"/><line class="cls-3" x1="1035.14" y1="1893.92" x2="3033.2" y2="1893.92"/></svg>